<?xml version="1.0" standalone="no"?>
<!DOCTYPE svg PUBLIC "-//W3C//DTD SVG 20010904//EN"
 "http://www.w3.org/TR/2001/REC-SVG-20010904/DTD/svg10.dtd">
<svg version="1.0" xmlns="http://www.w3.org/2000/svg"
 width="1024.000000pt" height="1024.000000pt" viewBox="0 0 1024.000000 1024.000000"
 preserveAspectRatio="xMidYMid meet">

<g transform="translate(0.000000,1024.000000) scale(0.100000,-0.100000)"
fill="#000000" stroke="none">
<path d="M876 8148 c-3 -29 -9 -70 -12 -91 -5 -29 -2 -41 10 -50 14 -10 15
-18 7 -38 -5 -14 -11 -50 -12 -80 -2 -44 -7 -55 -22 -59 -18 -5 -20 -14 -18
-101 2 -94 2 -97 -22 -103 -20 -5 -25 -14 -31 -52 -3 -26 -6 -66 -6 -89 0 -39
2 -43 32 -51 30 -9 33 -13 36 -58 2 -27 1 -68 -3 -91 -5 -37 -10 -43 -35 -49
-18 -3 -30 -12 -30 -21 0 -8 -7 -15 -16 -15 -15 0 -16 -8 -11 -60 5 -39 3 -60
-4 -60 -6 0 -4 -7 5 -15 8 -8 27 -15 43 -15 71 0 73 -4 73 -100 0 -98 -1 -100
-82 -100 l-38 0 0 -90 0 -89 73 -3 72 -3 3 -97 3 -98 -50 0 -51 0 0 -95 0 -95
50 0 50 0 0 -95 c0 -88 -1 -95 -20 -95 -18 0 -20 -7 -20 -57 0 -62 17 -139 28
-128 4 4 9 46 12 93 5 80 7 87 25 84 11 -2 22 -6 24 -8 3 -2 7 -42 9 -89 l5
-85 -27 0 -26 0 0 -89 0 -88 38 -6 c55 -9 68 -31 76 -128 4 -46 10 -119 14
-161 l8 -78 -45 0 c-42 0 -43 -1 -28 -18 13 -14 36 -116 37 -164 0 -5 11 -8
24 -8 53 0 56 -6 56 -101 l0 -89 -30 -6 c-29 -6 -30 -9 -30 -58 0 -28 4 -65 9
-83 7 -22 6 -33 -2 -37 -7 -2 2 -5 19 -5 30 -1 32 1 38 45 3 26 6 66 6 90 0
36 3 44 19 44 16 0 20 -11 26 -75 3 -41 4 -79 1 -84 -3 -5 0 -11 6 -14 7 -2
-4 -7 -25 -11 l-38 -7 3 -87 3 -87 59 -10 60 -10 12 -55 c7 -30 13 -70 14 -87
l0 -33 -60 0 -60 0 0 -45 c0 -33 5 -47 19 -54 27 -15 63 -78 48 -85 -11 -4 53
-10 79 -7 12 1 24 -74 24 -152 0 -27 4 -46 9 -42 5 3 12 1 16 -5 3 -5 17 -10
31 -10 13 0 24 -4 24 -10 0 -5 6 -7 13 -5 6 3 18 -8 25 -24 7 -16 26 -35 43
-42 17 -6 35 -22 39 -33 7 -16 9 -10 9 27 1 53 18 63 43 25 9 -13 35 -29 60
-36 79 -23 136 -102 73 -102 -14 0 -25 -4 -25 -8 0 -5 11 -14 25 -20 22 -10
25 -9 25 8 0 18 7 20 75 20 53 0 75 -4 75 -12 0 -10 2 -10 8 0 10 15 32 -26
32 -58 0 -11 6 -20 13 -20 18 0 67 -24 67 -32 0 -5 7 -8 17 -8 9 0 31 -11 49
-25 36 -28 44 -21 44 40 0 28 3 32 20 28 10 -3 25 -11 31 -19 6 -8 22 -14 35
-14 12 0 26 -4 29 -10 3 -5 20 -10 36 -10 26 0 30 -3 27 -22 -3 -21 -10 -23
-83 -29 -68 -4 -75 -6 -47 -13 17 -5 32 -12 32 -16 0 -4 17 -15 39 -24 30 -14
46 -16 74 -8 39 11 62 -2 36 -19 -8 -5 -9 -9 -4 -9 6 0 24 15 41 33 30 31 39
62 48 160 1 16 6 32 12 35 5 4 15 19 23 33 7 15 30 36 51 48 20 11 43 28 50
36 7 8 16 12 21 9 5 -3 9 1 9 8 0 7 12 26 26 41 14 16 27 34 28 40 1 7 7 22
14 34 11 20 9 22 -21 29 -17 5 -39 7 -47 6 -25 -3 -104 -20 -126 -27 -13 -4
-25 -1 -33 9 -8 9 -21 16 -30 16 -31 0 -146 45 -159 62 -8 11 -14 57 -16 120
-2 57 -9 164 -16 238 -8 74 -14 156 -14 182 -1 25 -4 44 -9 41 -4 -2 -7 1 -7
6 0 6 4 11 9 11 5 0 11 10 14 21 4 16 11 20 26 16 12 -3 21 -1 21 4 0 5 16 9
35 9 21 0 35 5 35 13 0 15 -55 14 -95 -2 -17 -7 -31 -8 -33 -3 -6 18 -53 -1
-73 -29 -11 -16 -28 -29 -38 -29 -24 0 -93 -37 -104 -55 -4 -8 -5 -20 -2 -25
5 -9 -11 -155 -21 -189 -4 -11 -9 -9 -25 7 -23 25 -57 29 -65 7 -7 -17 -31
-20 -36 -4 -2 6 -18 12 -35 13 -17 1 -35 5 -39 9 -15 15 -25 6 -44 -37 -23
-55 -68 -107 -89 -104 -12 2 -17 -7 -19 -37 -1 -22 -11 -58 -22 -80 -31 -65
-51 -137 -48 -172 4 -55 -10 -48 -17 9 -4 29 -5 58 -4 63 6 21 -16 217 -67
600 -5 37 -50 345 -58 395 -2 8 -6 44 -10 80 -4 36 -19 135 -32 220 -13 85
-33 223 -44 305 -11 83 -27 193 -34 245 -8 52 -30 201 -50 331 -19 130 -37
247 -39 260 -5 31 -20 136 -53 369 -14 102 -36 262 -49 355 -13 94 -27 193
-30 220 -4 28 -10 66 -15 85 -4 19 -8 42 -7 51 0 9 -5 43 -11 75 -21 114 -33
183 -38 231 -2 26 -6 55 -9 63 -2 8 -7 31 -10 50 -3 19 -8 42 -10 50 -2 8 -7
38 -11 65 -3 28 -7 51 -9 53 -1 1 -5 -21 -9 -50z m31 -1850 c-2 -13 -4 -3 -4
22 0 25 2 35 4 23 2 -13 2 -33 0 -45z"/>
<path d="M8761 7116 c-13 -13 -34 -27 -47 -30 -17 -5 -26 -17 -34 -48 -7 -25
-8 -43 -2 -47 5 -3 11 -12 13 -19 2 -7 26 28 52 78 26 49 46 90 44 90 -2 0
-14 -11 -26 -24z"/>
<path d="M8680 6939 c0 -5 5 -7 10 -4 6 3 10 8 10 11 0 2 -4 4 -10 4 -5 0 -10
-5 -10 -11z"/>
<path d="M8656 6913 c-4 -4 -16 -27 -26 -50 -10 -24 -26 -46 -34 -49 -9 -3
-16 -10 -16 -15 0 -22 -97 -119 -118 -119 -10 0 -27 -7 -38 -15 -10 -8 -26
-15 -35 -15 -9 0 -24 -9 -34 -20 -10 -11 -24 -20 -32 -20 -7 0 -13 -3 -13 -7
0 -5 -14 -16 -30 -25 -17 -9 -35 -29 -42 -43 -6 -14 -19 -25 -29 -25 -25 0
-69 -21 -69 -33 0 -5 -15 -23 -32 -39 -30 -28 -31 -30 -8 -23 32 10 128 76
160 110 37 39 89 59 117 44 22 -12 33 -9 66 13 15 11 20 10 35 -10 10 -13 32
-25 51 -27 33 -4 33 -4 26 31 -9 50 2 94 25 94 11 0 22 12 30 33 6 17 16 39
21 47 24 38 42 87 41 108 -1 13 3 32 8 43 8 14 7 19 -3 19 -8 0 -17 -3 -21 -7z"/>
<path d="M8064 6388 c-23 -32 -46 -80 -35 -74 6 4 20 25 31 47 20 38 22 52 4
27z"/>
<path d="M2301 4774 c0 -11 3 -14 6 -6 3 7 2 16 -1 19 -3 4 -6 -2 -5 -13z"/>
<path d="M2340 4752 c0 -8 -5 -10 -12 -6 -7 4 -8 3 -4 -5 4 -6 11 -9 16 -6 5
3 12 -6 16 -20 3 -14 10 -25 16 -25 12 0 0 41 -18 60 -10 10 -14 11 -14 2z"/>
<path d="M2417 4686 c-5 -11 1 -17 21 -22 65 -13 64 -13 51 2 -6 8 -19 14 -28
14 -9 0 -22 5 -28 11 -7 7 -12 6 -16 -5z"/>
<path d="M2513 4668 c2 -7 10 -12 16 -10 6 1 11 -2 11 -7 0 -5 7 -12 16 -15
14 -6 15 -4 4 9 -20 24 -54 41 -47 23z"/>
<path d="M1067 4560 c3 -11 7 -20 9 -20 2 0 4 9 4 20 0 11 -4 20 -9 20 -5 0
-7 -9 -4 -20z"/>
<path d="M8061 4014 c0 -11 3 -14 6 -6 3 7 2 16 -1 19 -3 4 -6 -2 -5 -13z"/>
<path d="M9090 3912 c-8 -3 -22 -10 -30 -17 -8 -7 -33 -15 -56 -17 -32 -5 -50
-16 -87 -53 -25 -27 -44 -52 -41 -56 2 -5 -8 -2 -23 6 -17 9 -29 11 -31 5 -2
-6 -9 -7 -15 -3 -35 22 -95 3 -97 -29 0 -14 28 -8 33 6 5 12 16 12 77 0 55
-10 77 -11 94 -2 11 6 34 12 49 14 16 1 34 7 40 13 20 20 59 12 83 -16 27 -31
29 -30 39 16 5 23 4 31 -3 27 -7 -4 -12 14 -14 52 -2 47 -6 58 -18 54z"/>
<path d="M8670 3744 c0 -8 5 -12 10 -9 6 3 10 10 10 16 0 5 -4 9 -10 9 -5 0
-10 -7 -10 -16z"/>
<path d="M8640 3730 c0 -5 5 -10 10 -10 6 0 10 5 10 10 0 6 -4 10 -10 10 -5 0
-10 -4 -10 -10z"/>
<path d="M8605 3710 c-10 -11 -13 -20 -8 -20 13 0 38 29 31 35 -3 3 -13 -4
-23 -15z"/>
<path d="M8122 3690 c0 -14 2 -19 5 -12 2 6 2 18 0 25 -3 6 -5 1 -5 -13z"/>
<path d="M8130 3624 c5 -19 12 -39 16 -42 4 -4 4 1 1 11 -4 10 -7 30 -7 43 0
13 -4 24 -9 24 -5 0 -5 -15 -1 -36z"/>
<path d="M8145 3529 c-4 -11 -4 -23 -1 -26 3 -4 6 -1 6 6 0 7 4 10 9 7 5 -4 7
3 4 14 -7 25 -10 25 -18 -1z"/>
<path d="M2476 3505 c-14 -10 -33 -13 -61 -9 -32 4 -45 1 -56 -12 -12 -16 -12
-17 1 -9 29 18 40 14 40 -16 0 -16 5 -29 10 -29 23 0 7 -21 -20 -26 -35 -8
-39 -27 -8 -48 12 -9 30 -35 39 -58 l17 -43 7 52 c6 43 11 51 27 50 17 -1 19
-7 15 -43 -5 -47 10 -73 57 -96 l29 -15 -42 -7 c-22 -3 -41 -10 -41 -14 0 -4
18 -15 40 -25 22 -9 40 -21 40 -27 0 -5 7 -10 16 -10 9 0 18 -9 21 -20 7 -28
17 -25 29 7 l9 27 42 -39 c22 -22 55 -50 72 -63 36 -27 40 -42 10 -42 l-20 0
21 -29 c11 -16 27 -45 35 -63 l14 -33 1 38 c0 44 7 40 51 -28 38 -59 41 -73
18 -80 -10 -4 -19 -12 -18 -18 1 -38 139 -90 139 -53 0 16 20 18 30 4 3 -4 38
-8 78 -9 l72 -2 2 -36 c0 -20 1 -43 2 -51 1 -18 51 -31 139 -37 61 -4 67 -7
67 -26 1 -20 2 -20 11 -4 5 9 7 22 3 29 -4 6 -8 24 -10 40 -2 16 -11 39 -19
51 -8 12 -15 29 -15 39 0 9 -13 26 -30 38 -16 12 -30 29 -30 38 0 9 -7 25 -14
35 -12 15 -18 17 -35 7 -12 -6 -26 -8 -31 -5 -6 3 -10 1 -10 -4 0 -12 -50 -15
-50 -3 -2 40 -90 65 -132 38 -24 -16 -25 -16 -25 16 0 133 -45 284 -97 327 -9
8 -16 19 -16 27 0 19 -32 33 -55 23 -11 -4 -23 -8 -26 -8 -3 -1 -21 29 -40 67
-19 37 -38 69 -42 71 -9 3 -31 52 -29 62 1 4 -12 12 -28 19 -16 6 -31 18 -34
25 -7 20 -61 28 -85 13 -17 -10 -25 -10 -41 0 -24 15 -21 15 -44 -3z"/>
<path d="M8161 3484 c0 -11 3 -14 6 -6 3 7 2 16 -1 19 -3 4 -6 -2 -5 -13z"/>
<path d="M8164 3449 c-3 -6 -2 -15 3 -20 5 -5 9 -1 10 11 2 22 -2 25 -13 9z"/>
<path d="M8177 3370 c3 -11 7 -20 9 -20 2 0 4 9 4 20 0 11 -4 20 -9 20 -5 0
-7 -9 -4 -20z"/>
<path d="M8186 3315 c-4 -14 -2 -34 4 -45 12 -22 13 -41 3 -37 -5 1 -10 -2
-11 -8 -2 -5 -9 -16 -15 -24 -9 -11 -9 -13 0 -8 6 4 14 3 18 -3 3 -5 0 -10 -7
-10 -8 0 -6 -5 5 -11 9 -5 21 -8 25 -5 5 3 9 -1 9 -9 0 -10 -5 -11 -18 -4 -19
10 -37 -5 -19 -16 6 -4 8 -10 5 -15 -3 -5 -1 -11 5 -15 5 -3 10 -17 10 -30 0
-13 5 -27 11 -31 7 -4 10 -27 7 -61 -3 -29 -1 -56 4 -59 5 -3 3 -12 -3 -20
-10 -12 -10 -15 1 -12 11 2 16 -16 23 -71 4 -41 15 -90 23 -109 8 -19 14 -43
14 -54 0 -10 3 -17 8 -15 4 3 7 -30 7 -73 0 -43 4 -76 8 -73 5 3 7 -3 5 -13
-2 -11 2 -18 10 -16 8 1 11 -5 6 -22 -4 -17 0 -27 13 -35 14 -8 14 -11 3 -11
-13 0 -13 -1 0 -10 10 -7 11 -10 2 -10 -8 0 -9 -5 -3 -17 5 -10 14 -30 22 -45
7 -16 16 -28 21 -28 5 0 6 5 3 11 -4 5 -8 20 -10 32 -9 81 -30 175 -37 171 -4
-3 -5 1 -2 9 3 8 -7 79 -21 158 -31 167 -32 175 -34 212 0 16 -4 26 -8 24 -5
-3 -9 11 -9 31 -1 21 -4 48 -7 62 -3 14 -6 33 -6 43 -1 10 -4 16 -9 13 -4 -2
-7 10 -6 28 1 17 -7 70 -18 116 -10 47 -19 97 -18 113 0 34 -6 35 -14 2z m9
-94 c3 -5 2 -12 -3 -15 -5 -3 -9 1 -9 9 0 17 3 19 12 6z m18 -108 c-5 -13 -18
-9 -18 5 0 4 -4 13 -9 20 -7 11 -4 11 12 1 11 -7 18 -19 15 -26z"/>
<path d="M3932 2910 c-9 -16 -24 -30 -33 -30 -9 0 -22 -7 -29 -15 -7 -8 -18
-15 -26 -15 -7 0 -22 -13 -34 -30 -12 -16 -28 -30 -35 -30 -8 0 -20 -18 -26
-41 -7 -22 -21 -45 -31 -50 -12 -6 -18 -21 -18 -43 0 -19 -6 -39 -14 -45 -8
-6 -16 -27 -18 -45 l-4 -33 32 34 c17 18 38 33 47 33 9 0 18 14 24 37 8 33 14
39 53 50 38 11 48 11 79 -5 33 -16 36 -20 37 -65 1 -27 7 -54 13 -60 8 -8 11
-7 11 3 1 19 39 -29 40 -49 0 -7 14 -29 30 -48 31 -35 32 -53 2 -53 -10 0 -13
-3 -7 -8 14 -10 71 -122 79 -154 9 -40 36 -36 36 4 0 36 10 32 14 -6 2 -14 -1
-26 -5 -26 -17 0 -9 -31 16 -58 14 -15 25 -35 25 -46 0 -11 3 -16 7 -12 4 3
23 -9 42 -27 47 -44 68 -51 81 -27 9 18 12 18 42 2 l33 -16 -29 -6 c-66 -12
-26 -39 80 -56 37 -5 43 -4 49 15 7 23 16 25 62 12 l31 -9 -10 31 c-6 18 -22
48 -35 67 -12 19 -23 45 -23 58 0 32 -28 82 -45 82 -8 0 -15 5 -15 11 0 5 -13
22 -29 37 -16 15 -41 50 -56 77 -15 28 -35 59 -46 71 -10 11 -19 26 -19 33 0
7 -31 44 -69 81 -53 53 -70 76 -75 106 -6 29 -22 54 -64 97 -31 31 -63 57 -72
57 -9 0 -16 10 -16 23 -2 33 -41 117 -54 117 -6 0 -19 -13 -28 -30z"/>
<path d="M3518 2766 c-6 -17 -24 -51 -38 -76 -15 -25 -31 -60 -38 -77 -10 -31
-9 -33 11 -33 12 0 46 -3 75 -6 44 -6 52 -4 52 10 0 21 16 21 29 -1 6 -10 11
-13 11 -7 0 6 -7 17 -16 24 -11 10 -15 32 -14 89 1 42 1 81 1 87 -1 7 -14 14
-31 16 -25 4 -31 0 -42 -26z"/>
<path d="M5008 2449 c-13 -17 -33 -41 -44 -54 -12 -13 -24 -34 -28 -48 -5 -21
-12 -24 -46 -24 -36 0 -71 -16 -68 -31 3 -25 -10 -45 -67 -107 -36 -38 -65
-78 -65 -89 0 -10 -8 -25 -17 -32 -16 -12 -16 -12 5 -7 12 3 29 18 38 34 8 16
19 29 25 29 6 0 9 9 6 20 -4 16 2 24 26 34 35 14 57 11 57 -9 0 -23 16 -26 60
-10 23 8 64 17 91 19 49 5 49 5 124 -66 58 -54 73 -74 64 -84 -7 -9 -6 -20 8
-40 l17 -27 6 24 6 24 12 -22 c7 -13 26 -30 42 -38 44 -23 110 -91 110 -114 0
-12 5 -19 13 -17 6 3 71 7 144 11 l132 6 31 -42 30 -42 -2 72 c-2 39 -5 71 -8
71 -4 0 -12 22 -19 49 -7 27 -18 57 -25 67 -21 28 -55 28 -82 -1 -18 -19 -33
-25 -65 -25 -35 0 -48 -6 -77 -36 l-35 -36 -19 30 c-10 17 -23 54 -28 84 -18
110 -44 148 -102 148 -37 0 -40 2 -59 48 -11 26 -27 51 -35 55 -8 4 -14 19
-14 32 0 14 -20 54 -45 91 -25 36 -45 69 -45 75 0 20 -30 7 -52 -22z"/>
<path d="M6157 2438 c3 -26 2 -59 -1 -73 -6 -23 -11 -26 -34 -20 -22 5 -33 0
-53 -22 -31 -36 -70 -108 -63 -116 3 -3 0 -18 -8 -34 -8 -15 -21 -41 -29 -58
-9 -18 -24 -31 -37 -33 -13 -2 -27 -14 -32 -26 -4 -12 -19 -35 -33 -52 -13
-16 -30 -46 -38 -66 -7 -21 -17 -38 -21 -38 -4 0 -8 -6 -8 -14 0 -7 -11 -29
-24 -49 -13 -19 -27 -46 -30 -58 -5 -17 -2 -15 11 8 10 18 22 32 26 32 10 0
77 88 77 101 0 5 11 22 25 37 43 49 50 57 50 63 1 11 49 90 56 90 3 0 12 21
19 46 9 31 29 63 60 95 44 46 80 63 80 38 0 -5 4 -8 9 -5 11 7 26 -11 38 -49
6 -16 16 -29 22 -27 7 1 10 -2 6 -8 -3 -5 9 -25 28 -44 l33 -35 40 37 c21 21
54 56 71 78 18 23 46 47 61 53 27 11 33 9 81 -26 28 -21 51 -43 51 -49 0 -7
11 -15 25 -18 14 -4 43 -24 64 -45 20 -20 45 -40 54 -44 9 -3 17 -14 17 -22 0
-18 22 -14 74 12 15 8 38 12 51 9 14 -4 32 1 48 14 30 23 100 50 131 50 30 0
52 -29 60 -80 6 -39 47 -96 59 -83 3 2 19 -4 36 -15 40 -24 91 -95 91 -126 0
-19 9 -27 43 -41 23 -9 57 -31 75 -48 28 -27 32 -29 32 -11 0 11 5 25 11 31
26 26 -66 133 -116 133 -15 0 -42 38 -50 73 -4 14 -22 43 -40 64 -28 32 -35
36 -48 24 -22 -18 -31 -9 -46 41 -8 24 -20 64 -28 89 -13 45 -10 82 12 155 4
10 -2 5 -12 -13 -10 -18 -21 -32 -25 -33 -36 -3 -118 -44 -118 -57 0 -7 -4
-13 -10 -13 -5 0 -10 -6 -10 -13 0 -8 -11 -19 -25 -25 -14 -6 -25 -17 -25 -25
0 -7 -8 -29 -18 -49 l-19 -36 -34 29 c-25 22 -43 28 -68 27 -31 -3 -35 0 -43
30 -10 39 -121 155 -134 142 -5 -5 -27 -7 -48 -3 -30 5 -40 12 -48 34 -9 27
-37 47 -39 29 -1 -6 -2 -14 -3 -20 -3 -26 -82 -90 -110 -90 -17 0 -29 -12 -46
-45 -16 -30 -26 -41 -31 -33 -4 7 -5 16 -2 21 3 4 1 20 -5 35 -5 15 -16 46
-23 70 -7 24 -25 53 -40 66 -14 13 -33 36 -42 52 l-15 29 5 -47z"/>
<path d="M8332 2340 c0 -14 2 -19 5 -12 2 6 2 18 0 25 -3 6 -5 1 -5 -13z"/>
<path d="M7559 2280 c-8 -48 -5 -118 7 -145 8 -19 14 -46 14 -60 0 -16 6 -25
16 -25 8 0 12 -5 9 -10 -3 -6 5 -14 19 -20 15 -5 26 -17 26 -28 0 -21 22 -72
31 -72 14 0 118 -73 114 -80 -2 -4 3 -7 12 -7 9 0 18 9 21 19 5 21 44 24 61 4
12 -14 64 -16 77 -3 10 9 -33 91 -63 118 -15 15 -36 23 -59 23 -23 0 -33 4
-30 12 5 13 2 13 -66 14 l-38 1 -20 68 c-13 42 -32 79 -48 94 -29 28 -39 39
-65 77 -9 13 -17 22 -18 20z"/>
<path d="M8375 2260 c2 -11 8 -28 14 -37 9 -16 10 -15 8 5 -1 12 -5 22 -9 22
-4 0 -5 7 -2 15 4 8 1 15 -4 15 -6 0 -9 -9 -7 -20z"/>
<path d="M8028 2200 c-1 -19 -2 -48 -3 -65 -1 -16 -8 -50 -15 -75 -7 -25 -15
-76 -17 -115 -2 -38 -7 -77 -10 -85 -3 -8 -5 -20 -4 -27 1 -8 -17 -13 -51 -15
l-53 -3 40 -21 c22 -12 49 -31 59 -43 28 -31 36 -26 36 24 0 25 5 45 10 45 6
0 10 -4 10 -9 0 -5 9 -13 20 -16 11 -3 20 -11 20 -16 0 -6 15 -25 33 -43 42
-43 73 -81 80 -100 5 -13 -2 -16 -39 -16 -55 0 -54 -10 4 -58 34 -28 43 -32
47 -18 15 47 17 51 22 37 3 -8 20 -26 37 -41 17 -15 41 -46 54 -68 l23 -41
-38 -6 c-51 -9 -63 -13 -37 -14 14 -1 26 -12 35 -33 7 -18 27 -47 43 -66 l31
-35 6 24 c4 13 8 42 9 64 2 22 5 31 7 19 2 -12 18 -37 35 -55 53 -59 64 -79
47 -90 -8 -5 -20 -9 -26 -9 -7 0 -13 -4 -13 -10 0 -5 6 -10 14 -10 7 0 25 -11
39 -24 15 -14 37 -23 51 -22 20 1 26 8 31 35 5 26 9 31 16 20 6 -10 9 -10 9
-1 0 8 23 12 80 12 50 0 80 -4 80 -11 0 -5 5 -7 11 -3 8 5 8 8 0 13 -7 5 -9
20 -5 38 5 24 14 33 44 43 22 7 41 19 44 26 3 8 14 14 24 14 10 0 24 6 30 12
13 13 25 3 35 -27 2 -5 23 9 46 30 24 22 50 43 59 47 13 5 11 7 -8 8 -14 1
-35 1 -47 1 -11 -1 -24 3 -28 8 -3 7 3 11 15 11 11 0 37 18 57 40 21 22 43 40
50 40 7 0 13 5 13 10 0 17 17 11 26 -10 8 -17 13 -12 42 40 l33 60 -26 0 c-14
0 -25 5 -25 10 0 6 4 10 8 10 4 0 13 12 19 28 13 28 27 51 56 91 9 13 17 32
17 41 0 10 7 23 15 30 8 7 15 23 15 37 0 14 4 21 10 18 6 -4 10 7 10 24 0 38
-17 40 -30 5 -6 -14 -19 -28 -30 -31 -11 -3 -20 -14 -20 -24 0 -11 -4 -19 -10
-19 -5 0 -10 -11 -10 -23 0 -13 -9 -32 -20 -42 -11 -10 -25 -37 -32 -59 -11
-38 -12 -39 -16 -13 -3 22 -8 27 -29 27 -15 0 -34 7 -43 15 -21 19 -80 31 -80
17 0 -7 -13 -18 -29 -27 -16 -8 -32 -24 -36 -35 -3 -11 -15 -20 -25 -20 -11 0
-24 -9 -30 -20 -6 -11 -18 -20 -27 -20 -13 0 -56 -40 -102 -95 -7 -9 -22 -15
-32 -12 -12 3 -17 1 -12 -6 4 -6 0 -8 -9 -4 -26 10 -70 -46 -79 -100 -12 -76
-18 -105 -22 -109 -2 -2 -11 49 -20 114 -21 147 -23 160 -66 377 -11 55 -23
123 -26 150 -4 28 -14 80 -22 117 l-14 66 -31 -9 c-18 -5 -34 -13 -37 -18 -3
-5 -30 -7 -58 -6 -29 2 -53 0 -53 -3 0 -4 -20 -28 -45 -54 -34 -36 -45 -56
-45 -80 0 -43 -14 -26 -34 42 -8 30 -31 93 -50 140 -33 78 -36 82 -38 50z"/>
<path d="M8397 2187 c-4 -10 -1 -17 6 -18 7 0 3 -4 -8 -9 -16 -7 -17 -9 -3 -9
22 -1 27 9 18 33 -6 17 -7 18 -13 3z"/>
<path d="M4650 2025 c-6 -8 -10 -19 -8 -24 1 -6 8 1 15 14 13 28 11 31 -7 10z"/>
</g>
</svg>
