<?xml version="1.0" standalone="no"?>
<!DOCTYPE svg PUBLIC "-//W3C//DTD SVG 20010904//EN"
 "http://www.w3.org/TR/2001/REC-SVG-20010904/DTD/svg10.dtd">
<svg version="1.0" xmlns="http://www.w3.org/2000/svg"
 width="1024.000000pt" height="1024.000000pt" viewBox="0 0 1024.000000 1024.000000"
 preserveAspectRatio="xMidYMid meet">

<g transform="translate(0.000000,1024.000000) scale(0.100000,-0.100000)"
fill="#000000" stroke="none">
<path d="M6967 8173 c-25 -45 -24 -216 2 -336 11 -51 26 -128 35 -172 8 -44
25 -127 36 -185 29 -140 47 -247 61 -350 13 -104 45 -300 64 -395 57 -288 60
-304 79 -430 20 -140 23 -155 35 -200 5 -22 19 -112 31 -200 11 -88 30 -216
41 -285 11 -69 24 -157 29 -197 5 -39 14 -100 21 -135 6 -35 13 -79 15 -98 2
-19 11 -80 19 -135 9 -55 22 -147 30 -205 8 -58 19 -121 24 -140 6 -19 12 -60
15 -90 3 -30 10 -89 15 -130 6 -41 15 -124 21 -185 6 -60 18 -157 26 -215 9
-58 20 -145 25 -195 4 -49 15 -142 23 -205 9 -63 18 -146 21 -185 15 -178 52
-436 63 -445 4 -3 12 -14 18 -25 17 -32 104 -70 160 -69 55 1 195 29 222 44 9
5 63 21 119 35 56 14 114 30 130 36 15 6 68 22 117 35 49 12 92 28 96 34 3 6
34 12 68 13 58 2 62 4 79 35 10 17 19 32 20 32 11 0 43 -37 43 -50 0 -10 11
-4 30 18 21 23 30 43 30 67 0 18 5 37 10 40 6 3 10 -2 10 -12 0 -13 4 -11 14
9 29 56 17 252 -15 232 -4 -2 -23 16 -43 41 -19 25 -37 42 -40 37 -15 -25 -48
-19 -89 15 -42 36 -42 36 -45 12 -6 -51 -11 -54 -41 -25 -42 40 -64 32 -75
-27 -7 -41 -12 -48 -27 -44 -13 3 -28 -5 -45 -26 -15 -17 -36 -31 -48 -32 -15
0 -22 -7 -24 -28 -2 -15 -12 -31 -22 -37 -10 -5 -21 -24 -25 -41 l-7 -31 -30
31 c-29 29 -32 30 -49 15 -10 -9 -25 -32 -35 -52 l-16 -35 -15 34 -14 33 -12
-24 c-8 -17 -21 -25 -37 -25 -21 0 -27 -8 -39 -47 -8 -27 -18 -48 -22 -48 -3
0 -12 14 -19 30 -7 17 -21 35 -31 40 -22 12 -32 13 -25 1 3 -4 -1 -17 -9 -27
-8 -10 -15 -40 -15 -66 0 -26 -5 -50 -12 -54 -6 -4 -8 -3 -4 4 3 6 1 14 -5 18
-17 10 -28 -16 -22 -55 4 -27 3 -33 -6 -25 -6 6 -29 116 -51 245 -41 248 -76
449 -140 799 -22 118 -53 296 -69 395 -29 177 -108 626 -216 1225 -30 168 -73
409 -95 535 -144 808 -344 1872 -355 1883 -2 2 -5 0 -8 -5z"/>
<path d="M1850 7888 c-19 -5 -51 -8 -72 -6 -33 3 -38 1 -38 -17 0 -15 -13 -28
-42 -43 -61 -30 -102 -56 -106 -65 -2 -4 -21 -10 -41 -13 l-38 -6 -7 -67 c-3
-36 -6 -90 -6 -118 l0 -53 -37 0 c-22 0 -33 -4 -26 -8 13 -8 6 -52 -8 -52 -5
0 -9 -8 -9 -18 0 -10 -5 -23 -11 -29 -5 -5 -9 -34 -7 -64 l3 -54 53 -3 52 -3
0 116 c0 127 -5 118 56 100 26 -7 44 -73 24 -85 -13 -8 -10 -70 4 -102 7 -15
3 -18 -25 -18 -58 0 -61 -7 -61 -117 0 -55 -3 -104 -7 -109 -10 -15 -61 -35
-61 -24 0 6 -14 10 -31 10 l-30 0 3 -82 c2 -46 7 -90 12 -100 5 -10 3 -18 -6
-21 -7 -2 -5 -3 5 -2 9 2 17 -1 17 -6 0 -5 12 -9 28 -9 71 0 72 -1 72 -120 0
-120 0 -120 80 -120 31 0 36 -3 38 -27 1 -15 7 -30 13 -34 7 -4 14 -41 17 -82
l4 -74 -76 -8 -76 -7 0 -114 0 -114 48 -1 c26 -1 57 0 69 1 12 1 30 -3 40 -9
10 -6 12 -11 6 -11 -15 0 -18 -87 -3 -110 5 -9 5 -19 -2 -27 -6 -7 -8 -22 -5
-33 3 -13 0 -20 -9 -20 -8 0 -14 -4 -14 -10 0 -6 -28 -10 -65 -10 l-65 0 0
-115 0 -115 68 0 c70 0 108 -12 78 -23 -24 -9 -21 -98 4 -147 11 -21 16 -41
12 -44 -5 -3 -43 -8 -86 -12 l-78 -7 4 -104 3 -105 60 -4 c33 -2 84 -6 113
-10 l52 -5 0 -103 0 -103 -67 -6 c-38 -4 -85 -7 -106 -7 -21 0 -36 -4 -33 -9
3 -5 15 -7 26 -4 16 4 20 0 20 -21 0 -19 5 -26 20 -26 13 0 20 -7 20 -20 0
-11 4 -20 9 -20 5 0 12 -18 16 -40 4 -22 11 -40 16 -40 5 0 9 -8 9 -19 0 -12
9 -20 27 -24 16 -3 31 -3 34 -1 4 2 10 53 14 114 6 105 8 111 28 108 16 -2 23
-15 32 -53 7 -27 20 -70 29 -95 28 -74 28 -75 -38 -78 l-59 -3 7 -69 c7 -81
13 -100 32 -100 8 0 14 -7 14 -16 0 -34 53 -57 155 -66 27 -3 31 -7 37 -48 3
-25 7 -73 7 -107 l1 -63 68 -1 c37 0 85 -3 106 -7 44 -8 42 -1 52 -144 l7 -87
-29 -13 c-39 -16 -40 -18 -25 -28 9 -5 16 -35 19 -84 2 -41 9 -73 13 -70 5 3
9 1 9 -5 0 -5 -5 -11 -12 -13 -7 -3 -6 -7 5 -11 15 -6 17 5 17 110 l0 115 60
-4 c63 -4 83 -14 61 -27 -9 -6 -10 -11 -2 -15 6 -4 11 -28 11 -54 1 -26 4 -66
9 -89 l8 -41 -69 -7 -68 -7 2 -102 c1 -78 3 -91 8 -56 l7 45 1 -40 c1 -23 -3
-46 -9 -52 -7 -7 12 -12 62 -16 40 -3 76 -10 80 -14 8 -8 -6 -191 -15 -200 -5
-5 -90 -23 -122 -25 -13 -2 -12 3 -20 -125 l-7 -102 -51 -3 c-46 -3 -51 -5
-54 -28 -5 -46 -24 -80 -43 -80 -12 0 -19 -7 -19 -20 0 -11 -4 -20 -10 -20 -5
0 -10 -7 -10 -15 0 -8 -7 -15 -15 -15 -8 0 -15 -8 -15 -19 0 -20 12 -24 118
-37 56 -7 67 -18 27 -28 -18 -5 -25 -13 -25 -30 0 -13 -11 -40 -25 -60 -14
-20 -25 -41 -25 -46 0 -6 -7 -10 -15 -10 -8 0 -15 -6 -15 -13 0 -14 -31 -47
-43 -47 -4 0 -8 46 -8 103 -1 56 -4 92 -6 80 -2 -13 -8 -23 -13 -23 -4 0 -11
-11 -14 -24 -3 -14 -15 -27 -25 -31 -11 -3 -29 -21 -40 -40 -11 -19 -29 -40
-41 -47 -19 -12 -13 -14 57 -23 l77 -10 -3 -50 c-1 -27 -6 -52 -11 -55 -4 -3
-10 -15 -14 -27 -4 -13 -12 -23 -17 -23 -5 0 -9 -7 -9 -15 0 -8 6 -15 13 -15
6 0 -2 -9 -20 -20 -22 -13 -54 -20 -105 -22 l-73 -3 -5 -115 -5 -115 -50 -3
c-27 -1 -67 -5 -87 -8 l-38 -6 0 -86 c0 -48 -4 -93 -9 -100 -17 -27 -30 15
-34 109 l-3 94 -2 -102 c-2 -123 -3 -122 133 -138 l90 -10 3 -112 3 -113 -103
-2 c-57 -1 -82 -3 -57 -5 41 -4 49 -8 59 -34 7 -16 16 -29 20 -29 4 0 10 -22
14 -50 4 -27 11 -50 17 -50 12 0 41 -27 37 -34 -2 -2 0 -7 3 -11 4 -3 8 42 11
100 3 58 7 108 11 111 3 3 24 3 46 -1 33 -5 42 -12 48 -33 6 -26 45 -72 60
-72 5 0 14 -9 21 -21 9 -14 20 -19 33 -16 16 4 19 0 19 -33 0 -45 -6 -48 -142
-52 -77 -3 -88 -5 -88 -21 0 -10 4 -15 10 -12 5 3 25 3 45 -1 25 -4 35 -11 35
-25 0 -11 7 -19 15 -19 8 0 15 -4 15 -9 0 -5 18 -11 41 -15 23 -4 48 -14 57
-23 16 -16 17 -12 20 50 3 77 6 79 87 48 27 -11 71 -25 98 -32 l47 -12 1 -51
c0 -38 3 -46 9 -31 7 17 9 17 9 3 1 -13 9 -18 29 -19 79 -1 185 -18 193 -30 6
-9 9 -1 9 26 1 79 2 81 98 94 48 7 99 15 115 17 24 5 28 2 33 -25 7 -35 5 -34
71 -21 26 5 76 15 111 21 60 11 62 13 62 43 0 48 10 54 85 61 143 13 165 26
165 101 0 28 3 30 41 33 24 1 51 -4 65 -14 22 -14 24 -14 24 0 0 9 -11 28 -25
42 -13 15 -27 40 -30 55 -4 18 -13 28 -25 28 -10 0 -22 5 -25 10 -4 6 -11 8
-16 5 -5 -4 -9 0 -9 9 0 8 -14 29 -31 46 -25 24 -34 28 -40 18 -7 -10 -10 -8
-15 9 -7 25 -34 39 -45 22 -4 -7 -19 -10 -38 -6 -24 5 -36 2 -51 -13 -11 -11
-24 -20 -30 -20 -5 0 -10 -7 -10 -15 0 -8 -7 -15 -15 -15 -8 0 -15 5 -15 10 0
6 -7 10 -15 10 -9 0 -42 27 -74 60 -46 46 -66 60 -88 60 -21 0 -33 7 -43 25
-8 15 -22 25 -36 25 -19 0 -24 8 -33 50 -6 28 -11 57 -11 65 0 16 -83 105 -99
105 -6 0 -41 29 -78 65 -38 36 -74 65 -82 65 -8 0 -27 14 -43 31 -27 28 -28
32 -14 48 9 9 17 28 18 42 2 13 11 33 20 43 23 26 58 101 62 134 5 45 34 96
65 114 29 16 29 18 18 55 -6 21 -18 43 -26 49 -8 6 -11 16 -7 22 3 6 2 13 -4
17 -7 4 -7 13 1 26 13 25 -10 65 -44 78 -13 5 -29 16 -36 25 -7 9 -17 13 -22
10 -5 -3 -6 3 -2 12 4 12 3 15 -5 10 -7 -4 -10 -2 -7 6 3 7 -7 18 -21 25 -25
12 -26 12 -9 -6 16 -18 15 -20 -4 -26 -11 -3 -29 -17 -40 -31 -10 -13 -22 -24
-25 -24 -4 0 -6 33 -4 73 3 63 5 72 21 69 29 -5 64 24 70 57 4 17 13 31 20 31
7 0 28 18 47 40 18 21 36 37 40 35 16 -10 90 109 90 143 0 10 9 27 20 37 12
11 31 36 42 57 12 21 25 38 29 38 4 0 26 20 50 45 24 25 47 45 51 45 13 0 82
73 106 112 21 33 22 44 15 100 -4 35 -7 71 -5 82 2 20 -34 86 -55 99 -7 4 -13
25 -13 46 0 21 -6 54 -14 72 -15 39 -8 137 12 162 7 8 12 31 10 50 -1 27 6 43
35 77 37 43 45 60 28 60 -4 0 -25 11 -45 25 -20 13 -36 21 -36 18 0 -4 -5 -2
-12 5 -7 7 -24 12 -39 12 -15 0 -32 7 -39 15 -7 8 -34 15 -68 17 -44 2 -56 6
-54 18 12 53 -7 120 -45 157 -18 19 -33 38 -33 43 0 6 -8 10 -17 10 -14 0 -13
4 6 24 24 25 21 46 -5 46 -8 0 -14 4 -14 9 0 5 -10 11 -21 14 -14 4 -20 11
-16 20 7 18 -14 37 -65 61 -26 11 -35 21 -31 32 4 10 -2 17 -17 21 -13 3 -48
19 -78 36 -39 20 -73 30 -112 32 -31 1 -71 10 -89 20 -30 15 -31 18 -18 33 37
41 110 198 113 242 5 70 14 108 29 124 8 8 20 35 27 61 12 46 12 46 -19 71
-17 13 -34 37 -38 52 -4 19 -15 32 -34 39 -16 6 -37 25 -46 43 -24 46 -83 104
-127 125 -35 16 -51 35 -30 35 5 0 22 11 38 25 16 14 32 25 35 25 3 0 12 11
19 25 10 19 19 23 37 19 28 -8 29 5 3 48 -11 18 -20 46 -20 62 0 44 -21 94
-42 99 -24 7 -23 27 2 27 15 0 22 11 31 47 9 34 26 60 68 102 33 33 54 63 53
74 -2 10 3 17 12 17 9 0 28 18 42 40 22 33 26 48 21 86 -4 40 -1 50 24 79 16
18 29 39 29 47 0 8 34 49 75 92 41 43 84 98 96 123 20 42 23 43 58 39 20 -3
28 -3 17 0 -10 3 -41 19 -68 35 -27 16 -55 29 -63 29 -26 0 -101 55 -167 123
-48 49 -73 67 -92 67 -28 0 -33 11 -13 29 19 15 64 110 71 148 3 17 23 58 46
90 43 63 48 78 26 90 -8 4 -16 19 -18 33 -2 17 -9 25 -23 25 -11 1 -19 5 -18
11 1 5 -13 8 -31 6 -22 -3 -39 2 -50 14 -27 27 -85 64 -101 64 -16 0 -29 17
-30 43 -1 10 -10 26 -21 36 -16 15 -25 17 -54 9z m-230 -868 c0 -11 -5 -20
-11 -20 -7 0 -9 -31 -7 -90 l3 -90 -47 0 -48 0 0 110 0 110 55 0 c48 0 55 -2
55 -20z m13 -2057 c-7 -2 -19 -2 -25 0 -7 3 -2 5 12 5 14 0 19 -2 13 -5z m267
-2287 c0 -3 -4 -8 -10 -11 -5 -3 -10 -1 -10 4 0 6 5 11 10 11 6 0 10 -2 10 -4z
m-124 -547 c-3 -17 -6 -51 -6 -76 0 -27 -4 -42 -10 -38 -5 3 -10 37 -10 76 0
57 3 69 16 69 13 0 15 -7 10 -31z m1174 -639 c0 -11 -7 -20 -15 -20 -18 0 -19
6 -2 25 16 19 17 18 17 -5z"/>
<path d="M1409 6576 c-2 -2 -3 -43 -1 -90 3 -70 6 -86 19 -86 13 0 13 -3 3
-15 -17 -20 -9 -27 34 -31 41 -4 46 7 46 118 0 102 -3 108 -54 108 -24 0 -45
-2 -47 -4z"/>
<path d="M1432 6033 c2 -76 2 -77 5 -15 6 95 23 74 23 -27 0 -73 3 -90 16 -95
9 -4 19 -4 23 -1 10 11 13 139 4 175 -8 30 -14 35 -41 38 l-32 3 2 -78z"/>
<path d="M8487 5840 c3 -11 9 -17 14 -14 14 8 10 34 -5 34 -9 0 -12 -7 -9 -20z"/>
<path d="M1464 5642 c15 -54 18 -62 27 -62 5 0 9 17 9 38 0 31 -4 38 -20 39
-15 1 -20 -3 -16 -15z"/>
<path d="M1493 5485 c0 -27 2 -38 4 -22 2 15 2 37 0 50 -2 12 -4 0 -4 -28z"/>
<path d="M2920 4461 c0 -5 21 -6 48 -4 70 7 74 11 10 12 -32 1 -58 -3 -58 -8z"/>
<path d="M2945 3760 c-3 -5 -15 -10 -26 -10 -59 0 -218 -136 -203 -174 5 -13
12 -10 36 19 32 36 142 120 191 145 15 7 27 17 27 22 0 11 -18 10 -25 -2z"/>
<path d="M2214 3460 c0 -58 1 -81 3 -52 2 28 2 76 0 105 -2 28 -3 5 -3 -53z"/>
<path d="M8795 3181 c-3 -5 -1 -12 4 -15 5 -3 11 1 15 9 6 16 -9 21 -19 6z"/>
<path d="M8715 3157 c-3 -9 -7 -24 -10 -33 -6 -20 15 -14 29 9 8 12 7 20 -1
28 -10 10 -14 9 -18 -4z"/>
<path d="M8628 3063 c7 -3 16 -2 19 1 4 3 -2 6 -13 5 -11 0 -14 -3 -6 -6z"/>
<path d="M8250 2786 c0 -2 14 -9 31 -15 27 -9 30 -9 19 4 -11 13 -50 22 -50
11z"/>
<path d="M8134 2735 c-3 -8 -14 -17 -24 -20 -11 -3 -22 -16 -25 -28 -4 -12 -9
-30 -12 -41 -3 -12 -1 -16 6 -12 6 4 11 16 11 27 0 24 60 81 77 74 7 -2 13 0
13 5 0 16 -40 12 -46 -5z"/>
<path d="M2554 2726 c-3 -9 -21 -23 -40 -32 -32 -15 -46 -34 -25 -34 16 0 86
68 78 76 -3 4 -9 -1 -13 -10z"/>
<path d="M7374 2731 c3 -4 -8 -8 -25 -9 -53 -1 -89 -13 -99 -33 -14 -25 -30
-24 -30 2 0 11 -4 17 -10 14 -5 -3 -10 -15 -10 -26 0 -23 -18 -24 -47 -4 -12
8 -24 11 -27 7 -3 -5 -27 -8 -53 -7 -48 2 -67 -5 -111 -37 -18 -13 -30 -14
-55 -7 -45 13 -73 11 -89 -5 -8 -7 -34 -14 -59 -14 -24 0 -69 -2 -99 -5 -30
-3 -71 -6 -90 -6 -27 -1 -39 -8 -52 -29 -53 -83 -61 -92 -87 -92 -11 0 -31
-12 -45 -26 -16 -18 -28 -24 -37 -18 -8 5 -23 7 -33 5 -22 -3 -86 -49 -86 -61
0 -13 -79 -90 -93 -90 -7 0 -19 -16 -26 -35 -13 -38 -25 -44 -39 -19 -8 14
-13 11 -35 -17 l-25 -32 -29 18 c-15 11 -32 18 -37 17 -18 -6 -45 10 -51 29
-4 11 -17 25 -30 31 -12 5 -28 21 -34 34 -6 13 -19 24 -30 24 -11 0 -28 12
-38 26 -15 21 -29 26 -71 29 -51 4 -52 3 -92 -43 -22 -26 -40 -51 -40 -57 0
-17 -35 -95 -42 -95 -5 0 -8 5 -8 10 0 18 -39 10 -50 -10 -11 -21 -54 -28 -65
-10 -10 16 -47 12 -83 -10 -18 -11 -39 -20 -47 -20 -8 0 -15 -5 -15 -11 0 -6
-17 -28 -37 -49 -51 -52 -63 -67 -63 -80 0 -6 -7 -18 -15 -26 -8 -9 -15 -24
-15 -34 0 -13 -5 -17 -20 -13 -14 4 -27 -3 -41 -21 -11 -14 -26 -26 -34 -26
-7 0 -18 -14 -25 -30 -18 -43 -27 -45 -45 -9 -12 22 -22 30 -35 26 -11 -3 -24
1 -31 9 -6 8 -16 14 -22 14 -11 0 -53 -43 -59 -62 -4 -11 -8 -10 -21 1 -15 12
-17 11 -17 -4 0 -30 -25 -10 -28 23 -3 33 -59 105 -74 96 -10 -6 -58 41 -58
56 0 5 -13 7 -30 4 -18 -4 -30 -2 -30 4 0 5 -8 8 -18 5 -10 -2 -24 3 -31 11
-17 20 -35 20 -51 1 -7 -9 -19 -14 -26 -11 -7 3 -18 -2 -24 -10 -7 -8 -25 -14
-41 -14 -19 0 -29 -5 -29 -15 0 -8 -11 -31 -25 -51 -14 -20 -25 -47 -25 -60 0
-25 -18 -32 -37 -13 -17 17 -50 1 -57 -26 -9 -34 -26 -31 -26 4 0 41 -17 81
-34 81 -7 0 -19 14 -26 30 -11 26 -17 30 -52 30 -32 0 -44 6 -65 31 l-26 30
-24 -23 c-13 -12 -21 -28 -19 -34 3 -7 -2 -15 -10 -18 -8 -3 -14 -1 -14 5 0 5
-22 -12 -50 -38 -27 -26 -50 -53 -50 -60 0 -18 -30 -16 -52 3 -17 16 -19 14
-38 -28 -19 -43 -45 -67 -52 -49 -2 4 -20 6 -40 3 -26 -3 -39 -10 -44 -24 -5
-17 -12 -19 -46 -14 -37 6 -43 4 -74 -30 -19 -19 -32 -40 -29 -45 4 -5 3 -9
-2 -9 -4 0 -14 -17 -21 -37 -24 -71 -25 -79 -3 -48 24 34 61 53 61 30 0 -8 3
-15 7 -15 16 0 79 26 91 37 7 7 24 13 38 13 13 0 24 5 24 10 0 6 -19 10 -42
10 -64 0 -80 16 -32 29 21 6 53 11 70 11 17 0 43 9 57 20 34 27 37 26 38 -12
0 -26 2 -29 8 -14 4 11 18 20 32 21 13 1 62 5 109 10 47 5 88 8 93 7 4 -1 7 4
7 11 1 28 17 40 40 27 34 -18 259 -23 290 -6 93 52 174 86 181 75 5 -8 8 -7
11 2 4 11 15 12 56 3 28 -6 53 -7 54 -3 2 5 30 -5 63 -21 86 -41 128 -50 157
-36 20 10 24 9 33 -9 16 -30 86 -26 155 8 73 37 85 47 94 80 3 15 13 27 21 27
17 0 38 34 27 45 -4 3 -2 5 3 3 6 -1 21 5 35 15 13 9 20 17 15 17 -27 1 62 30
100 32 35 2 45 7 45 21 0 12 8 17 29 17 15 0 57 9 91 20 85 27 108 26 116 -5
6 -23 10 -25 73 -26 36 0 88 -4 114 -8 45 -8 50 -6 59 15 13 27 9 27 67 13 60
-13 136 11 160 52 9 16 24 29 33 29 9 0 20 5 23 10 5 8 122 92 172 123 9 5 16
0 22 -15 6 -13 10 -17 10 -10 1 8 18 12 51 12 30 0 62 7 78 17 73 45 102 67
102 79 0 8 1 14 3 14 2 0 46 9 97 20 51 11 104 20 118 20 15 0 26 7 29 18 4
16 24 22 116 34 64 9 113 12 115 7 2 -5 59 -9 127 -9 l123 0 6 30 6 30 111 0
c87 0 116 -3 129 -15 22 -20 122 -55 157 -55 16 0 43 -4 61 -9 17 -5 32 -7 32
-3 0 13 58 33 102 35 23 1 64 -2 91 -7 46 -8 47 -8 47 17 0 16 7 28 19 32 19
6 57 72 48 82 -3 2 -15 -9 -28 -26 -27 -37 -30 -37 -66 -7 -22 18 -40 24 -78
24 -28 -1 -57 1 -65 3 -9 3 -14 -3 -14 -13 1 -10 -2 -18 -8 -18 -5 0 -7 -4 -4
-8 2 -4 1 -14 -4 -21 -11 -19 -50 -7 -84 24 -27 25 -66 34 -66 15 0 -19 -15
-10 -35 21 -19 29 -120 87 -132 76 -3 -3 -30 7 -59 23 -30 16 -52 25 -50 21z
m-844 -321 c0 -5 -5 -10 -11 -10 -5 0 -7 5 -4 10 3 6 8 10 11 10 2 0 4 -4 4
-10z"/>
<path d="M1725 2508 c-7 -24 -25 -93 -25 -100 0 -5 9 -8 20 -8 18 0 20 7 20
60 0 57 -6 75 -15 48z"/>
</g>
</svg>
